<svg width="25" height="28" viewBox="0 0 25 28" fill="none" xmlns="http://www.w3.org/2000/svg">
<path d="M24.5886 4.28342C24.5886 3.31171 23.7969 2.48342 22.7886 2.48342H16.4519C16.3436 1.11514 15.2284 0 13.8236 0H10.8001C9.39672 0 8.24357 1.08 8.13672 2.48342H1.8C0.828288 2.48342 0 3.27514 0 4.28342C0 5.14685 0.611712 5.86685 1.44 6.04685L4.24829 26.6036C4.28485 26.8553 4.50001 27.0719 4.78829 27.0719H19.7999C20.0882 27.0719 20.3034 26.8553 20.3399 26.6036L23.1482 6.04685C23.9751 5.86685 24.5886 5.14685 24.5886 4.28342ZM10.8002 1.0786H13.8236C14.6154 1.0786 15.3002 1.69031 15.3719 2.48202H9.25193C9.32365 1.69171 10.0085 1.0786 10.8002 1.0786ZM19.3319 25.9917H5.29186L2.55528 6.08332H22.0669L19.3319 25.9917ZM22.8236 4.96696H1.83521C1.43863 4.96696 1.11521 4.64352 1.11521 4.24696C1.11521 3.85038 1.43865 3.52696 1.83521 3.52696H22.8236C23.2201 3.52696 23.5436 3.85039 23.5436 4.24696C23.5436 4.64353 23.1836 4.96696 22.8236 4.96696Z" fill="#C53A3A"/>
<path d="M12.312 24.3718C12.6003 24.3718 12.852 24.1201 12.852 23.8318V8.20706C12.852 7.91878 12.6003 7.66706 12.312 7.66706C12.0237 7.66706 11.772 7.91878 11.772 8.20706V23.7954C11.772 24.1189 12.0237 24.3718 12.312 24.3718Z" fill="#C53A3A"/>
<path d="M8.42361 24.3351H8.49533C8.78361 24.2985 8.99875 24.0468 8.96361 23.7585L7.41533 8.24176C7.37877 7.95348 7.12705 7.73834 6.83875 7.77348C6.55047 7.81004 6.33533 8.06176 6.37046 8.35005L7.91875 23.8668C7.88359 24.1185 8.13534 24.3351 8.42361 24.3351Z" fill="#C53A3A"/>
<path d="M16.1634 24.2983H16.2351C16.5234 24.2983 16.7385 24.0818 16.7751 23.7949L18.3234 8.2782C18.3599 7.98992 18.1434 7.70163 17.8551 7.70163C17.5668 7.66506 17.2785 7.88163 17.2785 8.16991L15.7302 23.6866C15.6599 24.0115 15.8751 24.2983 16.1634 24.2983Z" fill="#C53A3A"/>
</svg>
