<svg width="24" height="24" viewBox="0 0 24 24" fill="none" xmlns="http://www.w3.org/2000/svg">
<path d="M2.92788 15.9667H3.62788V15.6102L3.33951 15.4005L2.92788 15.9667ZM1.34135 19.5L0.784446 19.0759C0.623247 19.2876 0.595988 19.5723 0.714102 19.8107C0.832216 20.0492 1.07528 20.2 1.34135 20.2L1.34135 19.5ZM5.84205 17.2269L5.9863 16.5419L5.53983 16.4479L5.27358 16.8184L5.84205 17.2269ZM13.8625 12.2083C13.8625 13.3799 13.2374 14.4914 12.1262 15.3332C11.0145 16.1754 9.44751 16.7167 7.6875 16.7167V18.1167C9.72445 18.1167 11.595 17.492 12.9716 16.4491C14.3486 15.4059 15.2625 13.9133 15.2625 12.2083H13.8625ZM1.5125 12.2083C1.5125 11.0368 2.13763 9.92528 3.24884 9.08345C4.36051 8.24128 5.92749 7.7 7.6875 7.7V6.3C5.65055 6.3 3.78004 6.92465 2.40344 7.96752C1.0264 9.01074 0.1125 10.5034 0.1125 12.2083H1.5125ZM7.6875 7.7C9.44751 7.7 11.0145 8.24128 12.1262 9.08345C13.2374 9.92528 13.8625 11.0368 13.8625 12.2083H15.2625C15.2625 10.5034 14.3486 9.01074 12.9716 7.96752C11.595 6.92465 9.72445 6.3 7.6875 6.3V7.7ZM3.33951 15.4005C2.17189 14.5516 1.5125 13.411 1.5125 12.2083H0.1125C0.1125 13.9598 1.0763 15.486 2.51626 16.5329L3.33951 15.4005ZM2.22788 15.9667C2.22788 16.4933 1.91853 17.2364 1.52515 17.9328C1.33897 18.2623 1.15183 18.5509 1.01104 18.7573C0.940873 18.8601 0.882811 18.9416 0.842918 18.9966C0.822986 19.0241 0.807633 19.0449 0.797624 19.0583C0.79262 19.065 0.788956 19.0699 0.786726 19.0729C0.785612 19.0744 0.784857 19.0754 0.784472 19.0759C0.78428 19.0761 0.784181 19.0762 0.784176 19.0763C0.784174 19.0763 0.784195 19.0762 0.78424 19.0762C0.784262 19.0761 0.784314 19.0761 0.784325 19.0761C0.784382 19.076 0.784446 19.0759 1.34135 19.5C1.89825 19.9241 1.89832 19.924 1.8984 19.9239C1.89844 19.9238 1.89853 19.9237 1.8986 19.9236C1.89874 19.9235 1.8989 19.9232 1.89909 19.923C1.89947 19.9225 1.89995 19.9219 1.90052 19.9211C1.90166 19.9196 1.90318 19.9176 1.90507 19.9151C1.90884 19.9101 1.91409 19.9031 1.9207 19.8942C1.93393 19.8764 1.95267 19.851 1.97612 19.8187C2.02299 19.7541 2.08887 19.6615 2.16745 19.5464C2.32413 19.3168 2.53363 18.9939 2.74408 18.6214C3.14397 17.9136 3.62788 16.8901 3.62788 15.9667H2.22788ZM7.6875 16.7167C7.09639 16.7167 6.52584 16.6555 5.9863 16.5419L5.6978 17.9119C6.33279 18.0456 7.00004 18.1167 7.6875 18.1167V16.7167ZM5.27358 16.8184C4.57416 17.7918 3.60206 18.2911 2.77283 18.547C2.36017 18.6743 1.99291 18.7379 1.73103 18.7695C1.60054 18.7853 1.49752 18.7929 1.42971 18.7966C1.39584 18.7984 1.37088 18.7993 1.3558 18.7997C1.34826 18.7999 1.34321 18.8 1.34075 18.8C1.33953 18.8 1.33895 18.8 1.33905 18.8C1.33909 18.8 1.33931 18.8 1.33969 18.8C1.33988 18.8 1.34011 18.8 1.34039 18.8C1.34053 18.8 1.34077 18.8 1.34084 18.8C1.34109 18.8 1.34135 18.8 1.34135 19.5C1.34135 20.2 1.34163 20.2 1.34192 20.2C1.34203 20.2 1.34234 20.2 1.34256 20.2C1.34301 20.2 1.34351 20.2 1.34405 20.2C1.34513 20.2 1.34638 20.2 1.34781 20.2C1.35068 20.2 1.35424 20.1999 1.35849 20.1999C1.36699 20.1998 1.37823 20.1996 1.39209 20.1992C1.41981 20.1985 1.45805 20.1971 1.50577 20.1945C1.60115 20.1893 1.7349 20.1792 1.89875 20.1594C2.22554 20.12 2.67719 20.0416 3.18554 19.8848C4.19832 19.5723 5.47657 18.9351 6.41051 17.6354L5.27358 16.8184Z" fill="black"/>
<path fill-rule="evenodd" clip-rule="evenodd" d="M13.7284 14.6968C14.5886 15.0059 15.5506 15.1788 16.5659 15.1788C17.1822 15.1788 17.779 15.1151 18.3452 14.9959C19.9375 16.5 22 17 22 17C22 17 20.9375 15.5625 20.625 14C22.6845 12.9375 23.1944 11.5813 23.1944 10.1572C23.1944 7.38383 20.2267 5.13556 16.5659 5.13556C14.1434 5.13556 12.0244 6.12003 10.868 7.58967C13.0638 8.45928 14.5624 10.2012 14.5624 12.2083C14.5624 13.1096 14.2603 13.9574 13.7284 14.6968Z" fill="black" fill-opacity="0.4"/>
<path d="M13.7284 14.6968L13.1602 14.2881C13.0319 14.4664 12.9948 14.6946 13.0599 14.9044C13.1251 15.1142 13.285 15.2813 13.4917 15.3556L13.7284 14.6968ZM18.3452 14.9959L18.8259 14.487C18.659 14.3294 18.4255 14.2636 18.2009 14.3109L18.3452 14.9959ZM22 17L21.8351 17.6803C22.1213 17.7497 22.4203 17.6325 22.5832 17.3872C22.746 17.1418 22.7379 16.8208 22.5629 16.5839L22 17ZM20.625 14L20.304 13.3779C20.0264 13.5211 19.8773 13.831 19.9386 14.1373L20.625 14ZM10.868 7.58967L10.3179 7.15682C10.1812 7.33053 10.1346 7.5586 10.1922 7.77201C10.2498 7.98542 10.4048 8.1591 10.6103 8.24049L10.868 7.58967ZM16.5659 14.4788C15.6296 14.4788 14.7478 14.3193 13.9652 14.0381L13.4917 15.3556C14.4294 15.6925 15.4716 15.8788 16.5659 15.8788V14.4788ZM18.2009 14.3109C17.6824 14.4201 17.1341 14.4788 16.5659 14.4788V15.8788C17.2304 15.8788 17.8755 15.8101 18.4894 15.6808L18.2009 14.3109ZM22 17C22.1649 16.3197 22.1651 16.3197 22.1652 16.3198C22.1653 16.3198 22.1654 16.3198 22.1655 16.3198C22.1657 16.3199 22.1658 16.3199 22.1659 16.3199C22.1661 16.32 22.1662 16.32 22.1661 16.32C22.1661 16.32 22.1655 16.3199 22.1645 16.3196C22.1624 16.3191 22.1584 16.3181 22.1526 16.3165C22.141 16.3135 22.1221 16.3085 22.0964 16.3013C22.0452 16.287 21.9673 16.2643 21.8677 16.2322C21.6681 16.1678 21.3829 16.0664 21.0505 15.9208C20.3809 15.6275 19.5444 15.1657 18.8259 14.487L17.8645 15.5047C18.7383 16.3301 19.7292 16.8704 20.4889 17.2032C20.8711 17.3706 21.2011 17.4882 21.438 17.5646C21.5566 17.6028 21.6523 17.6309 21.7201 17.6498C21.7539 17.6593 21.7809 17.6665 21.8003 17.6715C21.8099 17.674 21.8177 17.676 21.8236 17.6774C21.8265 17.6782 21.8289 17.6788 21.8308 17.6793C21.8318 17.6795 21.8326 17.6797 21.8333 17.6799C21.8337 17.68 21.834 17.68 21.8343 17.6801C21.8344 17.6801 21.8346 17.6802 21.8347 17.6802C21.8349 17.6803 21.8351 17.6803 22 17ZM19.9386 14.1373C20.1145 15.0171 20.4948 15.838 20.8161 16.4229C20.9789 16.7192 21.1313 16.9636 21.2439 17.1351C21.3003 17.221 21.347 17.2891 21.3803 17.3367C21.397 17.3605 21.4104 17.3793 21.42 17.3926C21.4248 17.3993 21.4286 17.4046 21.4315 17.4085C21.4329 17.4105 21.4341 17.4121 21.435 17.4133C21.4355 17.414 21.4359 17.4145 21.4362 17.415C21.4364 17.4152 21.4366 17.4154 21.4367 17.4156C21.4368 17.4157 21.4369 17.4158 21.4369 17.4158C21.437 17.416 21.4371 17.4161 22 17C22.5629 16.5839 22.563 16.584 22.563 16.5841C22.5631 16.5841 22.5631 16.5842 22.5632 16.5843C22.5632 16.5844 22.5633 16.5844 22.5633 16.5845C22.5634 16.5846 22.5634 16.5846 22.5634 16.5846C22.5633 16.5844 22.5629 16.584 22.5623 16.5832C22.5612 16.5815 22.559 16.5786 22.556 16.5744C22.5499 16.5659 22.5401 16.5522 22.5271 16.5336C22.5011 16.4965 22.4624 16.4401 22.4143 16.3668C22.3179 16.22 22.1852 16.0074 22.0432 15.7489C21.7552 15.2245 21.4479 14.5454 21.3114 13.8627L19.9386 14.1373ZM22.4944 10.1572C22.4944 10.7841 22.3829 11.3457 22.0798 11.8575C21.7765 12.3694 21.2456 12.8922 20.304 13.3779L20.9459 14.6221C22.064 14.0453 22.8177 13.3587 23.2843 12.5709C23.751 11.783 23.8944 10.9544 23.8944 10.1572H22.4944ZM16.5659 5.83556C18.2578 5.83556 19.7632 6.35594 20.8303 7.16433C21.8969 7.97237 22.4944 9.03722 22.4944 10.1572H23.8944C23.8944 8.50381 23.0081 7.05783 21.6757 6.0484C20.3437 5.03931 18.5348 4.43556 16.5659 4.43556V5.83556ZM11.4182 8.02253C12.4186 6.75106 14.3175 5.83556 16.5659 5.83556V4.43556C13.9693 4.43556 11.6302 5.489 10.3179 7.15682L11.4182 8.02253ZM15.2624 12.2083C15.2624 9.82154 13.4905 7.87538 11.1258 6.93885L10.6103 8.24049C12.6371 9.04319 13.8624 10.5809 13.8624 12.2083H15.2624ZM14.2967 15.1056C14.9045 14.2605 15.2624 13.272 15.2624 12.2083H13.8624C13.8624 12.9472 13.616 13.6543 13.1602 14.2881L14.2967 15.1056Z" fill="black"/>
</svg>
