<svg width="13" height="13" viewBox="0 0 13 13" fill="none" xmlns="http://www.w3.org/2000/svg">
<path d="M12.5055 1.10139C12.1795 0.775368 11.6509 0.775369 11.3249 1.10139L6.75 5.67626L2.17513 1.10139C1.84911 0.775368 1.32053 0.775368 0.994513 1.10139C0.668495 1.4274 0.668496 1.95598 0.994513 2.282L5.56939 6.85687L0.994513 11.4317C0.668496 11.7578 0.668496 12.2863 0.994513 12.6124C1.32053 12.9384 1.84911 12.9384 2.17513 12.6124L6.75 8.03749L11.3249 12.6124C11.6509 12.9384 12.1795 12.9384 12.5055 12.6124C12.8315 12.2863 12.8315 11.7578 12.5055 11.4317L7.93061 6.85687L12.5055 2.282C12.8315 1.95598 12.8315 1.4274 12.5055 1.10139Z" fill="#4D5C76"/>
</svg>
