<?xml version="1.0" encoding="iso-8859-1"?>
<!-- Generator: Adobe Illustrator 18.1.1, SVG Export Plug-In . SVG Version: 6.00 Build 0)  -->
<svg version="1.1" id="Capa_1" xmlns="http://www.w3.org/2000/svg" xmlns:xlink="http://www.w3.org/1999/xlink" x="0px" y="0px"
	 viewBox="0 0 310.129 310.129" style="enable-background:new 0 0 310.129 310.129;" xml:space="preserve">
<g>
	<path style="fill:#010002;" d="M247.052,62.379c-28.92,1.126-57.855,0.451-86.786,0.098c-32.303-0.392-64.132,5.722-96.402,1.702
		c-7.087-0.881-11.199,3.144-12.477,8.338c-0.653,1.539-1.077,3.269-1.12,5.26c-1.512,71.05,3.285,146.795,15.463,216.888
		c0.723,4.128,5.298,8.877,9.497,9.497c37.045,5.461,75.13,6.831,112.512,5.488c22.17-0.794,66.297-0.865,69.805-30.29
		c3.894-32.634,3.916-66.041,4.748-98.85c0.903-35.615,3.28-72.775-2.127-108.145C259.29,66.638,252.54,62.161,247.052,62.379z
		 M231.714,263.347c-0.256,4.019-0.566,8.034-0.93,12.042c-0.005,0.076-0.005,0.125-0.011,0.196
		c-12.804,8.044-34.576,6.565-48.979,7.082c-30.045,1.082-61.162,0.196-91.17-3.644c-9.888-60.461-13.897-125.093-13.32-186.544
		c27.685,1.327,55.168-3.057,82.962-2.807c25.025,0.223,50.039,0.756,75.059,0.185C242.086,146.059,235.244,207.558,231.714,263.347
		z"/>
	<path style="fill:#010002;" d="M257.837,23.196c-17.34,0.016-34.674,0.12-52.008,0.25C191.437,3.066,174.212,0.194,149.72,0.004
		c-21.968-0.169-34.826,5.483-43.077,24.367c-18.118,0.147-36.23,0.256-54.347,0.272c-17.541,0.016-17.541,27.212,0,27.195
		c68.521-0.071,137.026-1.382,205.548-1.452C275.373,50.369,275.373,23.174,257.837,23.196z"/>
	<path style="fill:#010002;" d="M111.206,157.889c-0.033-8.768-13.63-8.768-13.598,0c0.098,29.017,1.43,57.97,4.335,86.84
		c0.87,8.637,14.473,8.724,13.598,0C112.631,215.858,111.304,186.906,111.206,157.889z"/>
	<path style="fill:#010002;" d="M132.706,115.877c1.784,43.442,4.547,86.807,4.705,130.298c0.033,8.768,13.63,8.768,13.598,0
		c-0.158-43.496-2.921-86.856-4.705-130.298C145.94,107.137,132.342,107.104,132.706,115.877z"/>
	<path style="fill:#010002;" d="M180.679,157.889c-0.033-8.768-13.63-8.768-13.598,0c0.103,29.017,1.43,57.97,4.34,86.84
		c0.87,8.637,14.479,8.724,13.598,0C182.109,215.858,180.782,186.906,180.679,157.889z"/>
	<path style="fill:#010002;" d="M202.185,115.877c1.784,43.442,4.547,86.807,4.705,130.298c0.033,8.768,13.63,8.768,13.598,0
		c-0.158-43.496-2.921-86.856-4.705-130.298C215.424,107.137,201.826,107.104,202.185,115.877z"/>
</g>
<g>
</g>
<g>
</g>
<g>
</g>
<g>
</g>
<g>
</g>
<g>
</g>
<g>
</g>
<g>
</g>
<g>
</g>
<g>
</g>
<g>
</g>
<g>
</g>
<g>
</g>
<g>
</g>
<g>
</g>
</svg>
